<?xml version="1.0" encoding="UTF-8"?>
<svg version="1.1" xmlns="http://www.w3.org/2000/svg" width="408" height="362">
<path d="M0 0 C0 3 0 3 -2.01171875 5.12109375 C-2.89472656 5.88550781 -3.77773438 6.64992188 -4.6875 7.4375 C-5.55761719 8.19933594 -6.42773438 8.96117187 -7.32421875 9.74609375 C-9.06038166 11.20852587 -10.82907649 12.63349316 -12.6328125 14.01171875 C-17.67851483 18.24977565 -21.65317855 24.53525703 -23 31 C-23.54497313 39.16621272 -21.66909163 46.26753691 -19.5625 54.125 C-18.91476849 56.58509711 -18.27013757 59.0460131 -17.62890625 61.5078125 C-17.34088135 62.58691895 -17.05285645 63.66602539 -16.75610352 64.77783203 C-14.06609713 76.24141107 -13.76885748 87.43051381 -19.4375 98 C-28.23086759 111.5011375 -44.99706391 118.99853195 -59 126 C-53.97467839 132.74695957 -49.97386244 137.95543434 -42 141 C-43.15173355 143.46800047 -44.04783565 145.04783565 -46 147 C-46.99 147 -47.98 147 -49 147 C-49 147.66 -49 148.32 -49 149 C-50.98 149 -52.96 149 -55 149 C-55 148.01 -55 147.02 -55 146 C-55.7425 145.731875 -56.485 145.46375 -57.25 145.1875 C-64.6785321 141.97972477 -66.98218957 136.2013794 -70 129 C-70.75 125.375 -70.75 125.375 -71 122 C-71.31421907 120.28804782 -71.64901303 118.57979384 -72 116.875 C-72.165 116.06804687 -72.33 115.26109375 -72.5 114.4296875 C-72.82261915 112.86196009 -73.17356485 111.29967191 -73.55859375 109.74609375 C-74.17933627 105.88430624 -74.10503853 102.09122828 -74.0625 98.1875 C-74.05798828 97.39923828 -74.05347656 96.61097656 -74.04882812 95.79882812 C-74.03711312 93.86585239 -74.01917998 91.93291607 -74 90 C-73.34 90 -72.68 90 -72 90 C-72.34675781 89.47277344 -72.69351563 88.94554688 -73.05078125 88.40234375 C-74.33692436 85.1472902 -73.80098943 82.9861668 -73.1875 79.5625 C-72.99542969 78.45003906 -72.80335938 77.33757812 -72.60546875 76.19140625 C-72.40566406 75.13824219 -72.20585937 74.08507812 -72 73 C-71.85175781 72.14535156 -71.70351562 71.29070312 -71.55078125 70.41015625 C-70.9443109 67.75631083 -70.04487839 65.3873179 -69 62.875 C-67.91805888 60.25765713 -66.89614813 57.6884444 -66 55 C-68.97 55.495 -68.97 55.495 -72 56 C-72.28875 54.96875 -72.5775 53.9375 -72.875 52.875 C-73.82308798 49.54992003 -74.88256594 46.27248547 -76 43 C-79.0991531 45.24688599 -80.711884 46.62147575 -81.5078125 50.4296875 C-81.78058221 56.84886804 -80.3136393 61.03824597 -77.1796875 66.5625 C-75.34324582 70.35700201 -75.20227197 73.81971268 -75 78 C-76.485 78.495 -76.485 78.495 -78 79 C-83.69195169 75.20536554 -86.89804953 71.39052715 -88.25 64.6875 C-88.5142025 63.1273387 -88.7689866 61.56541977 -89 60 C-89.66 60 -90.32 60 -91 60 C-91.20916948 66.97231608 -91.29370182 73.36651008 -89 80 C-88.731875 80.79019531 -88.46375 81.58039063 -88.1875 82.39453125 C-86.17521108 87.85286495 -83.61052035 92.40000814 -80.171875 97.08984375 C-79 99 -79 99 -79 102 C-78.01 102 -77.02 102 -76 102 C-75.9729957 103.45823212 -75.95360213 104.91660675 -75.9375 106.375 C-75.92589844 107.18710938 -75.91429687 107.99921875 -75.90234375 108.8359375 C-76 111 -76 111 -77 113 C-79.3125 112.8125 -79.3125 112.8125 -82 112 C-83.5625 109.6875 -83.5625 109.6875 -85 107 C-85.639375 106.360625 -86.27875 105.72125 -86.9375 105.0625 C-92.14596746 99.85403254 -94.0195688 94.47048036 -96.16796875 87.51171875 C-96.76229069 85.08808161 -96.76229069 85.08808161 -98 84 C-98.12375 82.96875 -98.2475 81.9375 -98.375 80.875 C-99.02745452 76.82978198 -100.36815278 73.73964988 -102 70 C-102.39764263 68.01178687 -102.75455166 66.01267638 -103 64 C-102.360625 63.79375 -101.72125 63.5875 -101.0625 63.375 C-98.69008406 62.1369396 -98.69008406 62.1369396 -98.375 59.1875 C-98.25125 58.135625 -98.1275 57.08375 -98 56 C-96.5312085 51.48871182 -96.5312085 51.48871182 -94.53515625 49.65234375 C-90.88558076 45.72417471 -90 39.49268804 -90 34.3125 C-90 30.12186333 -88.82978143 27.73580376 -87 24 C-86.34 24 -85.68 24 -85 24 C-84.67 22.68 -84.34 21.36 -84 20 C-82.68 19.67 -81.36 19.34 -80 19 C-80 23.95 -80 28.9 -80 34 C-76.06095418 30.3150471 -76.06095418 30.3150471 -74.8125 25.875 C-74 22 -74 22 -73 20 C-69.5625 19.25 -69.5625 19.25 -66 19 C-65.34 19.66 -64.68 20.32 -64 21 C-63.32195312 20.55269531 -62.64390625 20.10539062 -61.9453125 19.64453125 C-55.79919321 15.6521075 -49.62902124 12.11886242 -43 9 C-41.9275 8.443125 -40.855 7.88625 -39.75 7.3125 C-34.87120971 5.6049234 -30.03387072 5.04406449 -24.9140625 4.4296875 C-22.113958 4.31275569 -22.113958 4.31275569 -21 3 C-19.6243815 3.00590394 -18.24885629 3.0551429 -16.875 3.125 C-13.57338141 3.17740664 -11.23991002 2.90934085 -8.25 1.5 C-5.10670807 0.04924988 -3.38796369 -0.3079967 0 0 Z M-48 22 C-46.68 22.33 -45.36 22.66 -44 23 C-44.06087116 24.39699314 -44.14988885 25.7927696 -44.25 27.1875 C-44.31960937 28.35345703 -44.31960937 28.35345703 -44.390625 29.54296875 C-45.19229275 32.77533421 -46.84894648 34.48008351 -49 37 C-56.22474442 47.91959088 -62.93709369 60.6324088 -63 74 C-59.27382578 72.75794193 -57.60708543 70.8889325 -55 68 C-55 67.34 -55 66.68 -55 66 C-54.42894531 65.73058594 -53.85789062 65.46117187 -53.26953125 65.18359375 C-50.93068948 63.96385355 -48.84946456 62.5716511 -46.6875 61.0625 C-42.903048 58.49984956 -39.26130427 56.63198887 -35 55 C-35.495 53.14375 -35.495 53.14375 -36 51.25 C-38.23235291 40.92941191 -37.16775065 32.62841666 -33 23 C-32.33014858 21.33461077 -31.66254815 19.66830818 -31 18 C-37.70126536 17.51263525 -42.06561592 18.92291196 -48 22 Z M-63.9375 30.5625 C-64.618125 31.366875 -65.29875 32.17125 -66 33 C-66.54140625 33.43570313 -67.0828125 33.87140625 -67.640625 34.3203125 C-69.24045013 35.96337743 -69.24045013 35.96337743 -69.14453125 38.48828125 C-68.54920883 43.55202367 -67.93262059 48.23286921 -66 53 C-63.29187344 51.64593672 -63.21860354 50.37499944 -62.1875 47.5625 C-60.13155122 42.18599997 -57.65032032 37.1051252 -55 32 C-54.01 32 -53.02 32 -52 32 C-49.7986134 28.19572508 -49.7986134 28.19572508 -49 24 C-54.40931799 24 -59.98472716 27.11433646 -63.9375 30.5625 Z M-39.625 63.875 C-40.44226563 64.40867187 -41.25953125 64.94234375 -42.1015625 65.4921875 C-42.72804688 65.98976563 -43.35453125 66.48734375 -44 67 C-44 67.66 -44 68.32 -44 69 C-44.66 69 -45.32 69 -46 69 C-46.33 70.32 -46.66 71.64 -47 73 C-47.66 73 -48.32 73 -49 73 C-50.61072484 74.74349933 -50.61072484 74.74349933 -52.25 77 C-52.86488281 77.81726563 -53.47976562 78.63453125 -54.11328125 79.4765625 C-54.73589844 80.30929688 -55.35851562 81.14203125 -56 82 C-56.59167969 82.75023438 -57.18335938 83.50046875 -57.79296875 84.2734375 C-58.60701172 85.31371094 -58.60701172 85.31371094 -59.4375 86.375 C-59.93121094 87.00148438 -60.42492187 87.62796875 -60.93359375 88.2734375 C-62.26274644 90.08717486 -62.26274644 90.08717486 -62 93 C-63.98 93.495 -63.98 93.495 -66 94 C-66.05399736 95.45792884 -66.09279177 96.91642712 -66.125 98.375 C-66.14820313 99.18710938 -66.17140625 99.99921875 -66.1953125 100.8359375 C-66.21370051 103.21342243 -66.21370051 103.21342243 -64 105 C-63.649375 104.360625 -63.29875 103.72125 -62.9375 103.0625 C-56.20479032 92.42047503 -48.49575731 85.22534423 -37 80 C-37.66 83.63 -38.32 87.26 -39 91 C-39.66 91 -40.32 91 -41 91 C-41 91.66 -41 92.32 -41 93 C-41.763125 93.28875 -42.52625 93.5775 -43.3125 93.875 C-46.15029308 94.96269013 -46.15029308 94.96269013 -49 97 C-49 97.66 -49 98.32 -49 99 C-49.57492188 99.23976562 -50.14984375 99.47953125 -50.7421875 99.7265625 C-53.45094995 101.25434201 -55.08155452 103.03630384 -57.125 105.375 C-57.80820313 106.14585938 -58.49140625 106.91671875 -59.1953125 107.7109375 C-61.35890202 110.4552307 -62.96625213 112.50946928 -63.046875 116.0703125 C-62.52061201 120.48882501 -62.52061201 120.48882501 -60 124 C-60 123.01 -60 122.02 -60 121 C-59.11054688 120.60361328 -59.11054688 120.60361328 -58.203125 120.19921875 C-55.91970946 118.95629575 -54.52573277 117.69598354 -52.75 115.8125 C-50.25984768 113.2425351 -47.71526802 110.83113126 -45 108.5 C-34.03390217 99.22226351 -34.03390217 99.22226351 -28.5546875 86.3203125 C-28.19908593 77.57251398 -30.63059302 69.33523528 -33 61 C-35.84821696 61 -37.2694579 62.31211651 -39.625 63.875 Z " fill="#75990E" transform="translate(275,7)"/>
<path d="M0 0 C1.0868623 4.09113162 0.83241884 7.13064092 0.0390625 11.26953125 C-0.18499268 12.48165283 -0.40904785 13.69377441 -0.63989258 14.94262695 C-1.00377075 16.85821411 -1.00377075 16.85821411 -1.375 18.8125 C-3.27688907 29.24085741 -4.81626276 39.39335048 -5 50 C-2.64176578 48.46426446 -0.2877707 46.92285338 2.0625 45.375 C2.75553223 44.9200415 3.44856445 44.46508301 4.16259766 43.99633789 C7.65204116 41.67567257 10.86629008 39.374403 13.875 36.4375 C18.83271976 32.57047859 23.36181897 32.76016536 29.4375 33.3125 C32 34 32 34 34 36 C34.46659731 38.72469786 34.83599254 41.38179802 35.125 44.125 C35.21136719 44.87910156 35.29773438 45.63320313 35.38671875 46.41015625 C35.59889261 48.27257127 35.80045763 50.13618931 36 52 C36.38929688 51.49210937 36.77859375 50.98421875 37.1796875 50.4609375 C42.8639336 43.46695727 50.05613066 38.03269758 59 36 C62.375 35.875 62.375 35.875 65 36 C65.33 37.65 65.66 39.3 66 41 C65.21496094 41.3403125 64.42992187 41.680625 63.62109375 42.03125 C51.53842494 47.60558555 45.68309095 54.99061246 40.88378906 67.34814453 C38.59300687 74.22175673 37.08188328 81.3723722 35.57226562 88.45214844 C35.1768457 90.21413574 35.1768457 90.21413574 34.7734375 92.01171875 C34.55091309 93.06834717 34.32838867 94.12497559 34.09912109 95.21362305 C32.72659731 98.69310194 31.11044403 99.98534058 28 102 C22.7012987 103.35064935 22.7012987 103.35064935 20 102 C19.90307725 94.50464073 19.93871715 87.10350103 20.5 79.625 C21.00950648 72.28810664 21.11247035 64.97885827 21.125 57.625 C21.12951172 56.51205566 21.13402344 55.39911133 21.13867188 54.25244141 C21.13673828 53.21265137 21.13480469 52.17286133 21.1328125 51.1015625 C21.13112061 49.69898193 21.13112061 49.69898193 21.12939453 48.26806641 C21.14809959 45.96658017 21.14809959 45.96658017 20 44 C19.28344238 44.44915771 18.56688477 44.89831543 17.82861328 45.36108398 C15.17151238 47.02603092 12.51390754 48.69016956 9.85595703 50.35375977 C8.70536328 51.07413856 7.55497137 51.79483983 6.40478516 52.51586914 C4.75215824 53.55179102 3.09874621 54.58646008 1.4453125 55.62109375 C0.45031738 56.2442749 -0.54467773 56.86745605 -1.56982422 57.50952148 C-4 59 -4 59 -6 60 C-8.81140524 69.32232793 -8.62808824 79.58689567 -9.03515625 89.23242188 C-9.10347656 90.43318359 -9.17179687 91.63394531 -9.2421875 92.87109375 C-9.31735596 94.49422485 -9.31735596 94.49422485 -9.39404297 96.15014648 C-10.1318593 99.62014247 -11.23784117 100.83243319 -14 103 C-17.47325181 104.1577506 -20.36067448 104.06866652 -24 104 C-24.35640731 92.2187584 -23.25940704 80.69975746 -22 69 C-23.65 69.99 -25.3 70.98 -27 72 C-26.01 72.66 -25.02 73.32 -24 74 C-30.85124938 78.45416213 -35.57505772 81.33038989 -44 81 C-44.24234375 81.59167969 -44.4846875 82.18335938 -44.734375 82.79296875 C-45.06953125 83.58316406 -45.4046875 84.37335938 -45.75 85.1875 C-46.07484375 85.96480469 -46.3996875 86.74210937 -46.734375 87.54296875 C-49.77535271 93.44659523 -53.93271564 96.62179727 -59.375 100.125 C-60.34566406 100.76888672 -60.34566406 100.76888672 -61.3359375 101.42578125 C-71.60124157 108.15203896 -71.60124157 108.15203896 -75.875 107.6875 C-76.57625 107.460625 -77.2775 107.23375 -78 107 C-78.4375 104.9375 -78.4375 104.9375 -78 102 C-75.3986163 98.65081792 -72.13866973 95.95065191 -68.89453125 93.2421875 C-64.40267923 89.48352708 -61.15296127 86.52281369 -59 81 C-58.56992397 74.96790799 -60.43534938 69.30709987 -62.0625 63.5625 C-64.80261854 53.74302543 -65.54106601 46.26289779 -60.42578125 37.15625 C-58.57205907 34.35281262 -56.5594571 32.17553853 -54 30 C-52.88625 28.9790625 -52.88625 28.9790625 -51.75 27.9375 C-47.27043917 24.78144578 -42.53738453 21.79286657 -36.9375 22.25 C-35 23 -35 23 -34.1875 24.6875 C-34 27 -34 27 -36.0625 29.4375 C-38.00440301 31.1315005 -40.00599446 32.75962847 -42.0625 34.3125 C-46.18535457 38.08447333 -48.77335577 41.65561567 -49.16015625 47.36328125 C-48.62052301 56.03689851 -46.11719111 64.60016735 -44 73 C-43.42894531 72.57589844 -42.85789063 72.15179688 -42.26953125 71.71484375 C-41.45871094 71.12832031 -40.64789063 70.54179687 -39.8125 69.9375 C-38.50333618 68.98399658 -38.50333618 68.98399658 -37.16772461 68.01123047 C-34 66 -34 66 -30.71386719 64.80932617 C-26.74739249 63.31193867 -24.12213957 61.89638607 -21 59 C-18.12773247 52.64001379 -18.00718706 45.23578511 -17.4375 38.375 C-17.06128297 34.65131735 -16.65470325 30.9311881 -16.24609375 27.2109375 C-16.1060215 25.87354774 -16.1060215 25.87354774 -15.96311951 24.50914001 C-14.09122578 7.66679998 -14.09122578 7.66679998 -9.59570312 2.33422852 C-6.56537614 0.06775624 -3.69542861 -0.43475631 0 0 Z " fill="#00563C" transform="translate(291,221)"/>
<path d="M0 0 C0 1.32 0 2.64 0 4 C-3.04627208 6.91088221 -6.23988317 9.42505449 -9.59765625 11.96484375 C-18.24224669 18.6884141 -27.99225359 27.71020986 -30 39 C-30.92677081 51.22167585 -28.78643993 61.78631104 -25.5625 73.5 C-24.92544241 75.87666827 -24.29409683 78.25471733 -23.66746521 80.63415527 C-23.28063403 82.09643625 -22.88716398 83.55698545 -22.48548889 85.01525879 C-18.64088703 99.28485938 -18.24038927 115.0192391 -25.625 128.25 C-31.89349033 137.7138915 -40.13090294 143.86970985 -49.75097656 149.64599609 C-52.38441933 151.23143613 -54.99953478 152.84566212 -57.6171875 154.45703125 C-59.59796064 155.66049779 -61.57973233 156.86232238 -63.5625 158.0625 C-64.51471436 158.64741211 -65.46692871 159.23232422 -66.44799805 159.83496094 C-67.35332275 160.37540039 -68.25864746 160.91583984 -69.19140625 161.47265625 C-69.99779541 161.96000244 -70.80418457 162.44734863 -71.63500977 162.94946289 C-74.28053238 164.12461349 -76.13683213 164.20562433 -79 164 C-78.53287093 159.45538838 -77.14578221 157.77620645 -73.6875 154.875 C-72.33785156 153.71677734 -72.33785156 153.71677734 -70.9609375 152.53515625 C-69.49527344 151.28025391 -69.49527344 151.28025391 -68 150 C-65.92189423 148.12097438 -63.86709488 146.21716936 -61.8125 144.3125 C-58.70335078 141.43385751 -55.57549275 138.62857855 -52.25 136 C-44.63530121 129.58269856 -39.28077272 121.01791593 -38.12464905 111.14186096 C-37.93313238 107.85100498 -38.4932887 104.87467069 -39.14453125 101.65234375 C-39.28099564 100.97171371 -39.41746002 100.29108368 -39.55805969 99.58982849 C-41.46064416 90.37271711 -43.90607521 81.27466641 -46.31958008 72.1809082 C-46.93488803 69.85345979 -47.53656382 67.52280087 -48.13671875 65.19140625 C-48.3241716 64.50059464 -48.51162445 63.80978302 -48.70475769 63.09803772 C-51.84659874 50.78110409 -49.2961673 38.69493277 -42.91796875 27.796875 C-34.21981706 15.11280859 -16.71953529 -1.28370964 0 0 Z " fill="#00563C" transform="translate(86,186)"/>
<path d="M0 0 C3.25 1.9375 3.25 1.9375 5 5 C6.04211616 9.64536526 5.53271486 13.69574385 3.25 17.875 C-5.46083686 30.06537224 -20.70604167 41.35302083 -34 48 C-34.41809201 50.83151973 -34.41809201 50.83151973 -34 54 C-31.55085322 56.66524797 -29.63522641 57.802374 -26.1875 58.875 C-15.71130646 59.28583112 -6.25396563 52.95840207 2.6171875 47.984375 C3.75414062 47.35015625 4.89109375 46.7159375 6.0625 46.0625 C7.08472656 45.47597656 8.10695312 44.88945312 9.16015625 44.28515625 C12.06887298 42.9688319 13.85393526 42.7171428 17 43 C16.5765171 48.39940699 15.63498781 51.021162 12 55 C0.01535589 64.7594251 -15.19572864 74.2395507 -31 73 C-37.04342271 71.47229463 -42.03280991 67.98546092 -45.3125 62.6875 C-48.85856672 54.92957444 -48.075301 45.15802435 -45.375 37.25 C-44.6234439 35.48240289 -43.83091073 33.73171114 -43 32 C-42.57589844 31.08605469 -42.15179688 30.17210937 -41.71484375 29.23046875 C-36.06220162 17.97242106 -26.00525617 6.00548796 -14.27734375 0.6640625 C-9.53100898 -0.71994592 -4.86132213 -0.78115937 0 0 Z M-15.8125 16 C-20.57344224 18.48851593 -24.15186912 21.40362618 -27 26 C-27 26.66 -27 27.32 -27 28 C-23.24105631 26.64166972 -20.19654835 24.93202341 -16.9375 22.625 C-16.10089844 22.03976562 -15.26429688 21.45453125 -14.40234375 20.8515625 C-12.06432754 19.04957927 -10.03512089 17.1338219 -8 15 C-11.69285171 13.76904943 -12.40769755 14.32636439 -15.8125 16 Z " fill="#00563C" transform="translate(208,253)"/>
<path d="M0 0 C3.00197464 1.80118478 4.45166366 2.90332732 6 6 C6.56231356 11.73559831 5.45436258 15.48566863 2 20 C-7.56431409 31.31521827 -20.85318736 39.70746445 -33 48 C-32.46801188 51.64532765 -32.30611528 52.71684336 -29.5 55.3125 C-24.99824155 57.48299068 -21.81846162 58.10730664 -17 57 C-10.16377678 54.11891654 -3.72350765 50.52506542 2.74609375 46.91015625 C3.88175781 46.27980469 5.01742187 45.64945312 6.1875 45 C7.19167969 44.4225 8.19585937 43.845 9.23046875 43.25 C12.09964331 41.955027 13.89558815 41.7275836 17 42 C17.59195883 46.04505197 17.14914472 47.76498408 14.9375 51.25 C6.37700013 60.35562604 -8.37484251 69.91958554 -20.7109375 71.46484375 C-27.98034787 71.65534193 -33.34995138 71.14154948 -39.046875 66.23828125 C-44.62164144 59.9347036 -46.3103995 55.13422415 -45.9375 46.75 C-44.10683445 31.49445375 -34.61345324 16.68648026 -23 7 C-15.20328756 1.64589397 -9.57512668 -1.03626912 0 0 Z M-21.91796875 20.890625 C-23.34244227 22.5553304 -24.70284017 24.23484525 -26 26 C-25.67 26.66 -25.34 27.32 -25 28 C-22.742766 26.61487914 -20.49470747 25.21766906 -18.25 23.8125 C-17.29867188 23.23145508 -17.29867188 23.23145508 -16.328125 22.63867188 C-12.44232338 20.18980731 -9.68545931 17.81796361 -7 14 C-13.00007212 14 -17.65292007 16.68638149 -21.91796875 20.890625 Z " fill="#00563C" transform="translate(384,253)"/>
<path d="M0 0 C1.1875 2.5625 1.1875 2.5625 2 5 C2.969375 4.195625 3.93875 3.39125 4.9375 2.5625 C11.30148941 -1.97586013 17.59182144 -1.09750793 25 0 C27.34260643 -0.2602896 29.6817571 -0.57420028 32 -1 C31.28722604 7.57133248 29.225717 15.62542098 27.08398438 23.9375 C25.71024426 29.43246045 24.61821862 34.33014039 25 40 C31.33619595 39.97066576 35.28034486 38.6696892 40.2734375 34.765625 C44.02462048 30.92957363 45.53501733 26.73794986 46.82421875 21.60546875 C47.13037109 20.40341797 47.43652344 19.20136719 47.75195312 17.96289062 C48.21504883 16.09407227 48.21504883 16.09407227 48.6875 14.1875 C49.00783203 12.92228516 49.32816406 11.65707031 49.65820312 10.35351562 C50.44604537 7.23742317 51.22635903 4.11964294 52 1 C55.63 0.67 59.26 0.34 63 0 C62.29464433 9.31069483 59.77479783 18.05685692 57.3515625 27.046875 C56.87976563 28.85671875 56.87976563 28.85671875 56.3984375 30.703125 C56.10630371 31.79270508 55.81416992 32.88228516 55.51318359 34.00488281 C54.98295621 37.09947344 55.24948767 38.98921652 56 42 C56 46 56 46 53.8125 48.3125 C51 50 51 50 48.375 50.125 C45.01647316 48.53411886 44.35705866 46.35693458 43 43 C41.4840625 44.175625 41.4840625 44.175625 39.9375 45.375 C33.96112762 49.61126396 28.15708251 50.46174726 21 50 C17.59585274 49.01657968 14.99249879 47.98874818 13 45 C11.24350537 37.43356161 13.06080161 31.04144921 14.9375 23.625 C15.51062191 21.28422271 16.08231288 18.94309445 16.65234375 16.6015625 C16.91007568 15.57369629 17.16780762 14.54583008 17.43334961 13.48681641 C18.07405573 11.10009022 18.07405573 11.10009022 18 9 C17.67 9.66 17.34 10.32 17 11 C15.80375 10.9175 14.6075 10.835 13.375 10.75 C7.92496729 10.75 4.99907421 13.31077872 0.94604492 16.7355957 C-1.49181076 19.57226757 -2.04338859 21.84732782 -2.88671875 25.48046875 C-3.18513672 26.72634766 -3.48355469 27.97222656 -3.79101562 29.25585938 C-4.09049321 30.56625799 -4.38931369 31.87680695 -4.6875 33.1875 C-5.29012969 35.7656439 -5.90075824 38.34177423 -6.51171875 40.91796875 C-6.77428467 42.06031982 -7.03685059 43.2026709 -7.30737305 44.37963867 C-8 47 -8 47 -9 48 C-10.85287502 48.07226502 -12.70833878 48.0838122 -14.5625 48.0625 C-15.57441406 48.05347656 -16.58632812 48.04445312 -17.62890625 48.03515625 C-18.41136719 48.02355469 -19.19382813 48.01195312 -20 48 C-19.76289307 47.03288086 -19.52578613 46.06576172 -19.28149414 45.06933594 C-18.39083807 41.42601051 -17.51223934 37.77986041 -16.63696289 34.1328125 C-16.25898026 32.56497973 -15.87787942 30.99789487 -15.4934082 29.43164062 C-13.25150532 20.28865209 -11.35870537 11.45321295 -11 2 C-3.375 -1.125 -3.375 -1.125 0 0 Z " fill="#76990F" transform="translate(188,165)"/>
<path d="M0 0 C0.70125 0.2475 1.4025 0.495 2.125 0.75 C1.87698648 9.2887513 -0.65268168 16.51603035 -3.6875 24.4375 C-4.17798258 25.73792232 -4.6677137 27.0386283 -5.15673828 28.33959961 C-6.18561485 31.06938524 -7.22273385 33.79586048 -8.26513672 36.52050781 C-9.63001341 40.09398429 -10.96625439 43.67744978 -12.29429626 47.26475525 C-13.34673107 50.10090603 -14.41160733 52.93227333 -15.47958374 55.76260376 C-15.98933228 57.1189246 -16.49495543 58.47680373 -16.99624634 59.83627319 C-17.7004961 61.74081412 -18.42411953 63.63815668 -19.1484375 65.53515625 C-19.55497559 66.61676025 -19.96151367 67.69836426 -20.38037109 68.81274414 C-23.07054027 74.09948465 -27.59446642 77.44931359 -32.1875 81.0625 C-33.07050781 81.75988281 -33.95351562 82.45726562 -34.86328125 83.17578125 C-35.52714844 83.69527344 -36.19101563 84.21476562 -36.875 84.75 C-40.6109643 83.30503466 -40.6109643 83.30503466 -41.76689148 80.87513733 C-42.04216423 79.73243629 -42.04216423 79.73243629 -42.32299805 78.56665039 C-42.5396965 77.70137222 -42.75639496 76.83609406 -42.97966003 75.94459534 C-43.19648941 75.00510544 -43.41331879 74.06561554 -43.63671875 73.09765625 C-43.87284378 72.12775253 -44.10896881 71.15784882 -44.35224915 70.15855408 C-44.84984668 68.10001277 -45.3393921 66.0395111 -45.8215332 63.97729492 C-46.55328646 60.85185259 -47.3104376 57.73346593 -48.07226562 54.61523438 C-48.55361545 52.60974211 -49.03347908 50.60389245 -49.51171875 48.59765625 C-49.73462082 47.67638443 -49.95752289 46.75511261 -50.18717957 45.80592346 C-54.02963106 29.23689767 -54.02963106 29.23689767 -51.25 23.25 C-48.13635865 19.97248278 -45.89935091 17.94749765 -41.3125 17.5 C-37.28489772 19.56543707 -36.40570476 23.64546616 -34.875 27.75 C-33.82025605 31.24145369 -32.95351753 34.76133839 -32.125 38.3125 C-31.90457031 39.22580078 -31.68414062 40.13910156 -31.45703125 41.08007812 C-30.92198826 43.30166968 -30.39480103 45.5248024 -29.875 47.75 C-28.00024099 44.93786149 -26.82744452 42.41330707 -25.5546875 39.296875 C-25.10569092 38.20906738 -24.65669434 37.12125977 -24.1940918 36.00048828 C-23.7175415 34.84532715 -23.24099121 33.69016602 -22.75 32.5 C-16.25276053 17.00420637 -16.25276053 17.00420637 -12.5625 9.875 C-11.70205078 8.20824219 -11.70205078 8.20824219 -10.82421875 6.5078125 C-8.03570686 2.56254318 -5.01543708 -0.43612496 0 0 Z " fill="#00563C" transform="translate(171.875,240.25)"/>
<path d="M0 0 C-1.27568089 2.84574968 -2.41496289 5.18089981 -5 7 C-7.73531868 6.78405379 -9.803943 6.0873949 -12.3046875 4.97265625 C-18.51738458 2.73068296 -25.73818193 3.14928664 -31.875 5.5 C-39.82144932 9.64534992 -43.15695419 17.42685048 -46.0859375 25.54296875 C-47.7550636 31.85568927 -48.62582208 38.79364336 -45.59765625 44.765625 C-43.15952695 48.17542931 -40.880678 49.63683459 -36.734375 50.4375 C-31.292671 51.10519374 -26.3972968 50.89954947 -21 50 C-20.814375 48.2675 -20.814375 48.2675 -20.625 46.5 C-20.09721115 42.21649625 -19.11601963 38.16647328 -18 34 C-22.29 33.67 -26.58 33.34 -31 33 C-31 30.03 -31 27.06 -31 24 C-22.09 24 -13.18 24 -4 24 C-6.81590909 39.4875 -6.81590909 39.4875 -8.125 45.4375 C-8.28742188 46.30826172 -8.44984375 47.17902344 -8.6171875 48.07617188 C-10.00720943 54.19508596 -10.00720943 54.19508596 -12.78808594 56.44970703 C-22.38493664 61.45999334 -35.54533388 61.52393565 -46 59.38671875 C-51.66911882 57.15253477 -55.66745586 53.02721858 -59 48 C-62.81270153 38.71690061 -61.27828644 28.60420597 -57.58984375 19.53125 C-52.38898071 8.08720219 -45.82947093 0.69755518 -34 -4 C-22.59272135 -8.27213769 -10.04572248 -6.80516684 0 0 Z " fill="#75990E" transform="translate(173,154)"/>
<path d="M0 0 C0 3 0 3 -2.01171875 5.12109375 C-2.89472656 5.88550781 -3.77773438 6.64992188 -4.6875 7.4375 C-5.55761719 8.19933594 -6.42773438 8.96117187 -7.32421875 9.74609375 C-9.06038166 11.20852587 -10.82907649 12.63349316 -12.6328125 14.01171875 C-17.67851483 18.24977565 -21.65317855 24.53525703 -23 31 C-23.54497313 39.16621272 -21.66909163 46.26753691 -19.5625 54.125 C-18.91476849 56.58509711 -18.27013757 59.0460131 -17.62890625 61.5078125 C-17.34088135 62.58691895 -17.05285645 63.66602539 -16.75610352 64.77783203 C-14.06609713 76.24141107 -13.76885748 87.43051381 -19.4375 98 C-27.68640237 110.66517793 -43.58908349 118.81355342 -57 125 C-57.99 125 -58.98 125 -60 125 C-60 121 -60 121 -58.70703125 119.5 C-58.08183594 119.005 -57.45664063 118.51 -56.8125 118 C-39.49675731 104.81963846 -39.49675731 104.81963846 -29.6484375 86.6953125 C-28.99758197 74.60310183 -33.0554653 62.16244856 -36.640625 50.72265625 C-40.05842855 39.45152912 -37.57479684 30.14959367 -32.4375 19.875 C-25.6856406 11.9112684 -11.48623927 -1.43577991 0 0 Z " fill="#00563B" transform="translate(275,7)"/>
<path d="M0 0 C1.1875 2.5625 1.1875 2.5625 2 5 C2.58265625 4.6390625 3.1653125 4.278125 3.765625 3.90625 C10.52859894 0.07815155 16.26203366 -1.19475094 24 0 C27.7786825 1.72360956 29.41161053 3.21548071 31.875 6.5 C34.89605091 15.89882506 33.0439924 25.1903181 29 34 C24.72681256 41.16490606 19.151481 46.57823141 11 49 C7.6745833 49.34114814 4.40069721 49.28650357 1.0625 49.1875 C-0.24944336 49.16719727 -0.24944336 49.16719727 -1.58789062 49.14648438 C-3.72553086 49.11144109 -5.86284984 49.05764541 -8 49 C-8.21914063 50.13179687 -8.43828125 51.26359375 -8.6640625 52.4296875 C-8.98298891 53.91175728 -9.303378 55.39351284 -9.625 56.875 C-9.76550781 57.62136719 -9.90601563 58.36773437 -10.05078125 59.13671875 C-10.5390625 61.3046875 -10.5390625 61.3046875 -12 65 C-16.03049425 67.05812472 -19.51803912 67.21342671 -24 67 C-22.75710855 59.7004379 -21.22894276 52.53660927 -19.3984375 45.36328125 C-18.90330557 43.38485075 -18.40852418 41.40633249 -17.9140625 39.42773438 C-17.14330801 36.35923573 -16.36967127 33.29154796 -15.58984375 30.2253418 C-14.83015761 27.23169167 -14.08225763 24.23528726 -13.3359375 21.23828125 C-13.10160004 20.32975906 -12.86726257 19.42123688 -12.62582397 18.48518372 C-11.31148015 13.16796419 -10.76199923 8.47759962 -11 3 C-9.73581754 2.30034557 -8.46334598 1.61565237 -7.1875 0.9375 C-6.47980469 0.55464844 -5.77210938 0.17179688 -5.04296875 -0.22265625 C-3 -1 -3 -1 0 0 Z M-0.640625 17.53515625 C-3.77606214 23.22038853 -6.63998428 32.04203896 -5.59765625 38.48828125 C-5.40042969 38.98714844 -5.20320313 39.48601562 -5 40 C0.27749373 41.68879799 5.13079368 41.64439706 10.1875 39.375 C16.14904799 36.07198017 18.51905422 30.74042862 20.4609375 24.4453125 C21.36435511 20.34720074 21.76323032 16.14538824 21 12 C19.76645231 10.1776997 19.76645231 10.1776997 18 9 C10.21700553 7.95228921 4.1537989 11.64523227 -0.640625 17.53515625 Z " fill="#76990F" transform="translate(269,165)"/>
<path d="M0 0 C3.8044196 -0.67634126 5.45442108 -0.37388203 8.65625 1.8203125 C12.14436236 6.55251826 11.78451849 10.62675885 11.6875 16.375 C11.67968506 17.57036377 11.67187012 18.76572754 11.66381836 19.99731445 C11.35171505 33.18795751 9.45317023 46.18772843 7.63790894 59.24057007 C5.59357257 73.966542 4.29170739 88.43400782 4.22680664 103.3034668 C4.2189917 104.53750244 4.21117676 105.77153809 4.203125 107.04296875 C4.20989258 108.10539795 4.21666016 109.16782715 4.22363281 110.26245117 C3.99795681 113.02501122 3.42486406 114.65094741 2 117 C0.56138706 116.91253716 -0.87597508 116.80434652 -2.3125 116.6875 C-3.11300781 116.62949219 -3.91351563 116.57148438 -4.73828125 116.51171875 C-7.45856366 115.89624898 -8.26259252 115.14686982 -10 113 C-10.34078959 109.92771272 -10.47281732 107.12486575 -10.4375 104.05078125 C-10.43137695 103.12848221 -10.42525391 102.20618317 -10.41894531 101.25593567 C-10.17701275 90.0020585 -8.33722439 78.97357585 -6.5803833 67.8760376 C-3.2793237 46.89665648 -0.74472847 26.61476728 -2.10009766 5.37353516 C-2 3 -2 3 0 0 Z " fill="#00563C" transform="translate(107,210)"/>
<path d="M0 0 C4.4328676 3.6619341 6.62986733 6.99589992 7.3359375 12.7265625 C7.47624286 23.13722032 5.23717556 31.61583082 -2.0625 39.27734375 C-8.51407186 45.01351953 -14.20884854 47.18759818 -22.8125 47.25 C-23.51181641 47.270625 -24.21113281 47.29125 -24.93164062 47.3125 C-30.46743911 47.35392787 -34.47682934 46.2474798 -38.64453125 42.53515625 C-43.35408378 36.5970248 -43.57310111 31.38663656 -43 24 C-41.24035113 14.09824706 -36.11665435 6.79761025 -28 1 C-18.79095328 -3.52374225 -9.29500521 -4.99581651 0 0 Z M-26.86328125 13.13671875 C-30.52260121 19.13498549 -31.70198844 26.09711365 -31 33 C-30.27808606 36.03723095 -30.27808606 36.03723095 -28 38 C-23.71356134 39.35316985 -20.10775184 39.32580936 -15.8125 38.0625 C-9.92978531 33.74850922 -6.24723037 28.23393612 -5 21 C-4.51325729 16.16299428 -4.38204202 12.34338691 -6.4375 7.875 C-9.70882327 5.48134883 -11.84766048 5.40112291 -15.82421875 5.6484375 C-20.74586074 6.44367588 -23.83093222 9.28171351 -26.86328125 13.13671875 Z " fill="#76990F" transform="translate(347,167)"/>
<path d="M0 0 C0.9075 0.103125 1.815 0.20625 2.75 0.3125 C5.3737437 4.11892983 4.59216161 7.49809753 3.8515625 11.796875 C3.73775238 12.53013 3.62394226 13.26338501 3.50668335 14.01885986 C3.14150404 16.3688365 2.76025354 18.71573628 2.375 21.0625 C-1.49377703 42.32361777 -1.49377703 42.32361777 2.19140625 63.19921875 C2.90700503 65.90648405 2.56831239 67.65409055 1.75 70.3125 C-1.26338929 72.97137291 -2.83538207 73.31964858 -6.875 73.25 C-10.25 72.3125 -10.25 72.3125 -12.125 70.5 C-17.07985948 60.865551 -13.88246694 47.80668927 -12.4375 37.625 C-12.25247258 36.29697471 -12.06757786 34.96893092 -11.8828125 33.64086914 C-11.35283647 29.8626389 -10.80232868 26.0875283 -10.25 22.3125 C-10.11158691 21.33700195 -9.97317383 20.36150391 -9.83056641 19.35644531 C-9.48956211 16.98412521 -9.12664169 14.6168843 -8.75 12.25 C-8.45609375 10.37634766 -8.45609375 10.37634766 -8.15625 8.46484375 C-6.77452523 3.65858561 -5.18321238 0.49838581 0 0 Z " fill="#00563C" transform="translate(86.25,250.6875)"/>
<path d="M0 0 C46.53 0 93.06 0 141 0 C141 1.98 141 3.96 141 6 C94.47 6 47.94 6 0 6 C0 4.02 0 2.04 0 0 Z " fill="#76990F" transform="translate(34,132)"/>
<path d="M0 0 C45.87 0 91.74 0 139 0 C139 1.98 139 3.96 139 6 C93.13 6 47.26 6 0 6 C0 4.02 0 2.04 0 0 Z " fill="#76990F" transform="translate(251,132)"/>
<path d="M0 0 C2.05078125 0.03255208 4.1015625 0.06510417 6.15234375 0.09765625 C4.72330985 3.63223479 3.12524109 5.05647268 -0.09765625 7.03515625 C-2.95022194 8.82482326 -5.43571755 10.56596863 -7.84765625 12.91015625 C-11.35242689 15.46571817 -13.22347145 15.49951482 -17.41015625 15.71875 C-21.19872718 16.30767849 -24.1973612 18.14086842 -27.48828125 20.0390625 C-30.18048872 21.24699002 -31.92839504 21.44542059 -34.84765625 21.09765625 C-36.84765625 19.09765625 -36.84765625 19.09765625 -36.97265625 15.97265625 C-36.93140625 15.02390625 -36.89015625 14.07515625 -36.84765625 13.09765625 C-26.43213892 7.38086854 -17.72918202 2.96343934 -5.76171875 1.52734375 C-3.07745109 1.13154021 -2.43686742 0.12879849 0 0 Z " fill="#689B00" transform="translate(255.84765625,9.90234375)"/>
<path d="M0 0 C2.44443203 2.19155975 2.94398375 3.63189319 3.4375 6.875 C2.88615204 10.81319968 1.45858274 12.90921027 -1 16 C-4 18 -4 18 -6.0625 17.875 C-8.64698236 16.70781442 -8.97926281 15.60905918 -10 13 C-10.22932769 8.65806241 -9.71322924 5.04437138 -7.25 1.4375 C-4.50885685 -0.3137859 -3.18908321 -0.65417091 0 0 Z " fill="#00563C" transform="translate(98,214)"/>
<path d="M0 0 C0.2421875 2.29296875 0.2421875 2.29296875 0 5 C-1.6796875 6.80078125 -1.6796875 6.80078125 -3.875 8.3125 C-4.59429687 8.82425781 -5.31359375 9.33601563 -6.0546875 9.86328125 C-8 11 -8 11 -10 11 C-10 11.66 -10 12.32 -10 13 C-10.66 13 -11.32 13 -12 13 C-12.33 14.32 -12.66 15.64 -13 17 C-13.66 17 -14.32 17 -15 17 C-15.33 17.66 -15.66 18.32 -16 19 C-17.91093346 15.17813307 -17.99122709 11.1164335 -17 7 C-12.97463274 2.77722667 -5.77899205 -1.92633068 0 0 Z " fill="#699B00" transform="translate(241,63)"/>
</svg>
